<?xml version="1.0" standalone="no"?>
<!DOCTYPE svg PUBLIC "-//W3C//DTD SVG 20010904//EN"
 "http://www.w3.org/TR/2001/REC-SVG-20010904/DTD/svg10.dtd">
<svg version="1.0" xmlns="http://www.w3.org/2000/svg"
 width="310.000000pt" height="310.000000pt" viewBox="0 0 310.000000 310.000000"
 preserveAspectRatio="xMidYMid meet">
<metadata>
Created by potrace 1.11, written by Peter Selinger 2001-2013
</metadata>
<g transform="translate(0.000000,310.000000) scale(0.100000,-0.100000)"
fill="#000000" stroke="none">
<path d="M980 3091 c0 -7 -5 -9 -12 -5 -7 5 -8 3 -3 -5 5 -9 10 -10 18 -2 6 6
8 14 4 18 -4 3 -7 1 -7 -6z"/>
<path d="M996 3073 c-11 -15 -14 -23 -8 -19 7 4 12 3 12 -1 0 -5 -9 -14 -21
-21 -19 -12 -20 -11 -14 7 3 10 1 22 -4 26 -7 4 -8 -1 -4 -11 5 -13 3 -15 -8
-9 -10 7 -9 1 4 -18 21 -32 22 -44 3 -28 -10 9 -16 9 -21 1 -4 -6 -4 -14 -1
-17 3 -4 6 -1 6 6 0 7 4 10 10 6 5 -3 7 -12 3 -21 -3 -8 -8 -12 -11 -10 -3 3
-12 0 -20 -7 -13 -10 -14 -8 -8 13 5 20 3 18 -10 -7 -13 -25 -23 -31 -45 -31
-16 1 -29 5 -29 10 0 4 -4 8 -10 8 -18 0 -10 -18 10 -25 11 -4 18 -11 15 -16
-8 -12 20 -51 30 -41 5 4 5 1 0 -7 -6 -11 -11 -9 -24 8 -16 22 -17 22 -34 3
-13 -15 -14 -21 -4 -32 10 -12 9 -12 -5 -2 -9 7 -18 9 -20 5 -3 -4 -3 -3 -2 4
2 7 -1 15 -6 18 -10 6 -13 -4 -11 -40 0 -15 -1 -16 -7 -5 -8 18 -32 25 -32 9
0 -5 -4 -7 -10 -4 -5 3 -10 1 -10 -4 0 -6 5 -11 10 -11 6 0 10 -5 10 -11 0 -8
-5 -8 -15 1 -9 8 -15 9 -15 2 0 -6 5 -14 10 -17 6 -3 10 -12 10 -18 0 -8 -3
-8 -9 1 -4 8 -12 14 -17 15 -5 1 -8 6 -6 11 2 5 -3 13 -10 17 -7 4 -9 12 -4
16 5 4 11 3 13 -4 3 -8 11 -5 24 8 11 11 24 17 29 14 6 -3 7 2 4 12 -4 13 -3
15 4 5 7 -11 10 -10 16 3 5 14 9 15 20 6 9 -7 17 -8 20 -3 9 15 -25 24 -40 11
-14 -11 -20 2 -7 15 13 13 11 35 -5 48 -15 11 -15 11 -6 -2 12 -18 12 -27 -6
-62 -10 -22 -16 -25 -27 -17 -11 10 -12 8 -7 -6 5 -12 4 -16 -4 -11 -6 4 -20
-2 -31 -13 -21 -21 -33 -18 -24 5 3 8 0 14 -7 14 -6 0 -9 -4 -5 -9 3 -5 1 -12
-4 -16 -6 -3 -7 -13 -4 -22 5 -12 3 -14 -8 -7 -20 12 -40 14 -33 3 8 -14 -16
-40 -29 -32 -6 4 -7 1 -2 -7 6 -10 4 -12 -8 -7 -12 4 -14 2 -10 -10 4 -10 2
-14 -5 -9 -6 3 -14 1 -18 -5 -4 -8 -3 -9 4 -5 7 4 12 3 12 -3 0 -5 -3 -12 -8
-15 -9 -5 -43 19 -43 31 -1 4 -2 9 -3 11 -2 1 -2 -9 -2 -22 1 -14 5 -28 9 -32
14 -14 7 -26 -8 -14 -12 10 -16 9 -21 -4 -3 -9 -11 -13 -18 -9 -6 4 -6 0 2 -9
9 -11 10 -18 2 -23 -5 -3 -10 -1 -10 4 0 6 -5 11 -10 11 -6 0 -5 -8 2 -20 8
-13 20 -18 35 -15 25 4 38 -9 27 -26 -5 -8 -10 -7 -16 4 -5 9 -15 14 -23 11
-8 -4 -12 -10 -9 -15 3 -5 10 -6 16 -3 7 4 8 2 4 -5 -4 -6 -12 -9 -17 -6 -5 4
-9 2 -9 -3 0 -16 13 -22 26 -11 8 7 14 6 20 -2 4 -7 3 -9 -3 -6 -11 7 -31 -11
-31 -26 0 -5 -4 -12 -8 -15 -4 -4 -4 -1 0 6 7 12 -4 16 -31 13 -7 -1 -13 3
-13 8 0 15 18 23 25 11 3 -5 12 -10 18 -10 13 1 -21 30 -34 30 -4 0 -11 -9
-14 -20 -4 -11 -11 -17 -17 -14 -6 4 -6 10 1 17 6 6 11 16 11 22 0 5 -5 2 -11
-8 -6 -9 -15 -14 -21 -11 -6 4 -3 -4 8 -18 10 -14 22 -24 26 -22 4 2 10 -1 14
-7 4 -7 3 -9 -2 -6 -6 3 -15 -3 -22 -14 -8 -12 -9 -19 -1 -19 5 0 7 -5 3 -11
-5 -8 -9 -8 -14 1 -5 9 -9 9 -14 1 -4 -6 3 -15 16 -20 14 -6 17 -10 8 -10 -9
-1 -22 5 -29 12 -10 10 -11 7 -7 -16 3 -17 1 -25 -5 -21 -13 7 -61 -35 -53
-47 3 -5 10 -9 15 -9 6 0 7 5 3 12 -4 7 -3 8 4 4 6 -4 9 -13 6 -21 -5 -11 -10
-12 -25 -2 -10 6 -21 18 -24 25 -2 7 0 10 5 7 6 -4 9 -1 8 6 -2 7 2 13 9 14
16 0 29 15 14 15 -18 0 -67 -40 -50 -41 8 0 4 -5 -8 -11 -13 -6 -23 -17 -23
-25 0 -8 -4 -11 -10 -8 -9 6 -14 -8 -7 -20 1 -2 -7 -11 -18 -20 -15 -11 -15
-13 -3 -9 11 4 16 1 14 -10 -3 -19 -16 -34 -16 -17 0 7 -5 9 -10 6 -6 -4 -10
-12 -9 -18 3 -25 -1 -38 -11 -32 -5 3 -7 13 -4 23 5 14 4 15 -5 2 -7 -11 -6
-19 6 -32 15 -16 14 -18 -8 -27 -18 -6 -26 -5 -31 8 -6 13 -7 12 -5 -4 2 -12
9 -19 18 -17 9 1 16 -5 16 -13 0 -10 -6 -14 -15 -10 -12 4 -12 2 -3 -8 9 -11
8 -17 -5 -28 -13 -11 -15 -11 -14 2 4 28 0 49 -10 49 -7 0 -7 -6 -1 -19 8 -14
7 -22 -6 -32 -14 -12 -15 -11 -8 10 5 17 4 21 -5 16 -7 -4 -9 -17 -6 -31 8
-30 -2 -31 -14 -1 -9 22 -9 22 -9 -3 -1 -48 -4 -61 -15 -57 -15 6 -17 -96 -2
-105 8 -6 8 -8 -1 -8 -9 0 -12 -106 -11 -445 1 -390 3 -443 16 -432 13 10 14
8 8 -10 -5 -16 -2 -25 15 -34 l22 -12 -24 -13 c-13 -7 -19 -13 -13 -14 19 0
50 31 37 36 -9 4 -10 11 -3 24 13 24 10 40 -10 60 -14 14 -14 14 0 5 13 -9 13
-8 1 8 -10 13 -17 15 -27 6 -10 -8 -14 -8 -14 0 0 6 6 11 13 11 8 0 7 4 -3 10
-8 5 -10 10 -5 10 6 0 16 -5 23 -12 9 -9 12 -9 12 0 0 6 -9 17 -20 24 -11 7
-20 17 -20 22 0 5 8 1 19 -8 17 -16 19 -16 25 0 4 9 9 14 13 11 3 -4 12 1 20
11 13 15 13 15 3 -6 -6 -12 -15 -20 -21 -17 -5 4 -9 2 -9 -3 0 -17 13 -22 27
-10 7 6 16 8 20 5 3 -4 15 -2 27 4 20 10 20 9 3 -5 -11 -8 -26 -12 -35 -8 -14
5 -15 3 -5 -9 10 -12 8 -17 -8 -27 -10 -7 -19 -17 -19 -23 0 -8 4 -8 14 0 11
9 20 10 35 1 22 -11 28 -30 10 -30 -5 0 -7 5 -4 10 3 6 -1 10 -9 10 -9 0 -15
-3 -15 -7 3 -21 -3 -24 -19 -12 -15 13 -16 12 -3 -3 13 -17 35 -18 74 -3 10 4
17 3 17 -5 0 -6 -4 -8 -10 -5 -19 12 -10 -24 10 -38 20 -14 20 -14 -3 -24 -17
-8 -28 -7 -42 3 -12 9 -14 14 -5 14 7 0 10 3 7 7 -4 3 -1 13 6 22 11 14 10 15
-7 1 -18 -13 -19 -13 -11 0 6 12 5 13 -5 3 -10 -9 -17 -10 -27 -2 -9 8 -13 8
-13 0 0 -10 14 -15 33 -12 5 1 6 -8 2 -19 -5 -15 -2 -20 12 -20 10 0 14 -4 8
-8 -14 -10 -17 -32 -5 -32 5 0 10 7 10 17 0 19 13 9 16 -12 2 -14 -9 -20 -29
-16 -5 1 -6 -3 -2 -9 4 -6 1 -19 -7 -28 -12 -15 -11 -16 5 -3 9 7 17 10 17 6
0 -4 6 -2 13 4 8 6 17 8 20 4 10 -9 9 -25 -1 -19 -12 7 -38 -12 -28 -21 5 -4
11 -2 13 5 3 6 9 10 14 7 5 -4 2 -18 -7 -33 -15 -26 -15 -26 1 -5 10 13 22 23
27 23 6 0 6 -6 -1 -14 -8 -9 -8 -16 -2 -20 7 -5 7 -15 0 -33 -5 -14 -7 -28 -5
-31 3 -2 8 7 12 22 3 14 10 26 15 26 5 0 6 -7 3 -15 -7 -18 11 -20 22 -3 5 7
3 8 -6 3 -9 -5 -11 -4 -6 4 4 6 1 14 -7 17 -7 2 -14 11 -14 19 0 8 4 12 9 9 4
-3 8 0 8 5 0 6 -5 11 -11 11 -5 0 -7 5 -4 10 3 6 1 10 -5 10 -7 0 -9 7 -6 16
4 10 2 13 -6 8 -6 -4 -8 -3 -4 4 3 6 2 13 -4 17 -6 4 -7 11 -4 17 4 6 3 8 -3
5 -5 -3 -10 0 -10 8 0 8 4 15 9 15 4 0 8 -5 8 -11 0 -5 6 -7 12 -3 8 5 7 0 -2
-11 -14 -17 -13 -18 3 -12 11 4 16 3 12 -4 -4 -5 -1 -16 5 -24 7 -8 9 -15 5
-15 -4 0 0 -11 9 -25 9 -14 12 -25 6 -25 -5 0 -10 -5 -10 -10 0 -6 10 -9 23
-7 12 2 16 2 9 0 -6 -3 -12 -9 -12 -14 0 -6 4 -8 8 -5 5 3 9 -1 9 -9 0 -8 -4
-12 -9 -9 -4 3 -8 -2 -8 -11 0 -9 -5 -13 -11 -9 -6 3 -4 -7 4 -23 11 -20 12
-34 5 -48 -9 -19 -9 -20 6 -1 8 10 13 23 9 29 -3 6 -1 7 5 3 6 -3 9 -20 7 -36
-4 -34 10 -41 18 -10 3 11 1 18 -4 14 -5 -3 -6 1 -3 9 3 8 1 18 -5 21 -6 4 -8
14 -5 24 5 14 4 15 -5 2 -5 -8 -13 -11 -17 -7 -12 12 28 35 50 29 18 -5 18 -7
4 -10 -22 -4 -23 -16 -3 -32 9 -7 14 -19 11 -26 -3 -7 -1 -16 4 -19 6 -4 10
-1 10 4 0 22 30 10 36 -14 3 -14 10 -22 15 -19 5 3 10 0 10 -5 1 -6 2 -16 3
-22 0 -6 10 -17 20 -25 11 -8 14 -14 8 -14 -7 0 -12 -7 -12 -16 0 -8 -5 -12
-10 -9 -6 4 -7 11 -4 17 4 6 2 8 -4 4 -6 -3 -13 -2 -17 4 -3 5 1 10 10 10 9 0
14 4 11 9 -5 7 -33 8 -56 2 -3 0 -11 -11 -19 -23 -14 -23 -14 -23 7 -4 18 15
24 16 37 6 8 -7 12 -16 9 -21 -3 -5 0 -17 6 -26 9 -15 10 -14 5 7 -5 22 -4 23
7 9 11 -13 16 -14 25 -4 7 7 9 16 5 20 -4 4 3 2 15 -4 27 -14 31 -23 6 -14
-12 5 -14 3 -8 -7 6 -9 4 -11 -6 -4 -10 6 -10 2 2 -17 12 -18 14 -30 7 -43 -5
-10 -7 -20 -4 -23 3 -4 6 -1 6 5 0 7 5 12 11 12 5 0 7 -5 3 -12 -4 -6 -3 -8 4
-4 6 3 17 -3 26 -15 8 -12 19 -18 25 -15 5 4 12 2 16 -4 3 -5 1 -10 -6 -10 -8
0 -9 -3 0 -13 6 -8 8 -17 4 -21 -4 -4 1 -4 12 0 11 5 14 9 7 12 -17 5 -15 19
3 19 21 0 27 -25 8 -36 -18 -10 -27 -41 -11 -41 5 0 8 6 5 13 -2 6 3 17 12 24
26 20 35 15 15 -9 -19 -23 -19 -23 2 -5 11 9 24 14 27 11 4 -4 -3 -15 -15 -25
-11 -11 -17 -19 -13 -19 5 0 16 7 26 16 11 10 19 12 24 5 3 -6 1 -11 -4 -11
-6 0 -11 -5 -11 -11 0 -5 5 -7 12 -3 8 5 9 2 5 -10 -10 -25 2 -40 19 -25 12 9
20 9 39 -1 13 -7 22 -17 19 -21 -2 -4 0 -10 6 -14 6 -4 7 -11 3 -18 -3 -6 11
0 32 13 21 13 35 18 30 10 -6 -10 -4 -12 10 -6 11 4 22 1 27 -6 8 -10 11 -10
15 0 2 6 9 12 15 12 6 0 3 -9 -7 -20 -13 -15 -21 -17 -26 -8 -11 17 -47 17
-62 -1 -10 -12 -9 -13 3 -6 19 12 50 14 50 3 0 -4 -10 -8 -22 -9 -22 -1 -23
-1 -2 -7 13 -5 20 -14 18 -25 -2 -17 -1 -17 21 -3 15 10 26 12 30 6 4 -6 11
-7 17 -4 8 5 9 1 5 -10 -5 -13 -3 -15 12 -7 22 12 42 -4 34 -28 -4 -11 -1 -10
11 4 17 20 17 20 10 -4 -4 -14 -2 -21 4 -17 5 3 12 15 15 26 3 11 1 18 -3 15
-5 -3 -7 4 -5 15 2 11 0 20 -6 20 -5 0 -9 -10 -9 -22 0 -20 -13 -18 -16 3 -1
5 -2 12 -3 15 0 4 -9 0 -18 -7 -14 -12 -16 -12 -8 0 6 10 4 12 -5 6 -9 -6 -11
-4 -5 5 5 8 4 11 -3 6 -6 -3 -14 -1 -17 4 -5 8 -13 6 -26 -6 -11 -9 -22 -15
-25 -12 -3 3 9 16 26 28 30 21 32 21 44 4 13 -17 62 -32 52 -16 -2 4 4 8 14 8
10 0 16 -4 14 -8 -3 -4 0 -8 6 -8 7 0 10 -7 6 -18 -5 -14 -3 -13 10 3 13 16
15 16 11 3 -3 -10 -2 -20 3 -23 9 -5 14 7 12 26 -1 4 9 4 21 1 18 -5 19 -7 5
-10 -10 -2 -18 -8 -18 -13 0 -6 4 -8 9 -5 5 4 8 -2 6 -11 -2 -10 -4 -20 -4
-22 -1 -3 -6 0 -13 7 -9 9 -15 9 -27 -1 -14 -11 -15 -10 -1 7 12 16 12 18 1
11 -10 -6 -12 -4 -6 5 5 9 4 11 -4 6 -6 -4 -9 -11 -6 -16 2 -4 -4 -19 -15 -33
-11 -14 -20 -29 -20 -33 0 -5 7 2 16 14 15 22 44 30 44 12 0 -5 -7 -10 -17
-10 -9 0 -14 -3 -10 -6 3 -3 15 -3 27 1 16 5 19 10 11 18 -16 16 -13 31 3 17
27 -22 45 2 49 67 0 12 4 20 8 17 8 -5 6 -23 -6 -59 -6 -19 -6 -19 8 -2 8 10
24 19 35 22 15 3 19 -1 15 -16 -3 -10 -9 -19 -14 -19 -5 0 -6 8 -2 17 3 10
-10 2 -30 -19 -19 -20 -38 -33 -42 -30 -3 4 -3 -2 1 -12 5 -13 4 -17 -4 -12
-6 3 -23 -5 -39 -20 l-28 -26 29 21 c32 24 47 21 23 -4 -14 -14 -14 -45 0 -45
3 0 3 7 0 15 -4 8 -2 17 3 20 9 6 14 -8 11 -28 -1 -5 3 -6 9 -2 6 4 7 12 1 24
-6 10 -6 23 0 32 5 7 9 12 10 9 0 -3 3 -14 5 -25 3 -11 6 -25 6 -31 1 -7 131
-11 417 -12 361 -1 417 1 432 14 13 12 19 12 25 3 4 -8 3 -10 -4 -5 -7 4 -12
3 -12 -2 0 -15 173 -8 178 6 2 8 10 7 27 -4 13 -8 26 -11 29 -6 8 14 -4 21
-22 14 -14 -5 -15 -3 -6 9 9 11 9 17 -3 28 -13 12 -14 11 -8 -8 6 -20 5 -21
-14 -9 -12 7 -21 16 -21 21 0 4 4 6 9 3 5 -3 11 0 14 8 5 11 21 13 60 7 5 0 6
-5 2 -11 -3 -5 -13 -7 -23 -4 -14 5 -14 3 2 -6 21 -14 36 0 32 28 -3 20 56 63
66 48 4 -6 10 -7 14 -3 4 4 -1 13 -11 21 -10 7 -15 18 -11 24 3 6 2 13 -4 17
-5 3 -10 1 -10 -5 0 -6 -4 -8 -10 -5 -16 10 -11 21 10 22 11 1 20 -3 20 -8 0
-6 5 -7 10 -4 8 5 7 12 -2 22 -12 15 -11 15 10 2 12 -8 22 -17 22 -22 0 -4 -4
-6 -9 -3 -5 3 -14 0 -20 -8 -9 -10 -8 -15 4 -20 9 -3 13 -2 10 4 -3 6 1 10 9
10 9 0 15 -5 14 -12 -2 -6 6 -13 17 -15 15 -2 16 -1 5 5 -8 4 -16 19 -16 34
-1 15 3 25 8 22 4 -3 5 -10 2 -16 -5 -7 -2 -8 6 -3 10 6 12 4 6 -10 -5 -15 -4
-16 8 -6 9 7 18 22 22 33 5 16 8 18 15 7 5 -8 3 -16 -4 -21 -9 -6 -9 -8 0 -8
19 0 23 16 9 35 -10 14 -17 16 -32 7 -11 -7 -13 -12 -6 -12 7 0 10 -5 6 -11
-4 -8 -9 -7 -15 2 -9 15 7 39 27 39 7 0 25 -11 40 -25 28 -26 40 -32 30 -16
-4 5 -3 11 1 14 5 2 3 3 -4 1 -6 -1 -19 7 -30 18 -10 12 -12 18 -6 14 25 -14
54 -15 60 -1 3 8 9 12 14 9 5 -3 6 -11 2 -17 -10 -17 -11 -47 -1 -41 5 4 7 12
4 20 -3 8 1 17 9 21 13 5 13 7 -2 18 -11 8 -24 10 -34 4 -9 -4 -20 -5 -24 -1
-5 4 -5 0 0 -8 5 -9 5 -12 -1 -7 -5 5 -9 12 -9 15 0 4 -4 13 -8 19 -6 9 -3 11
7 7 9 -3 16 -10 16 -15 0 -4 7 -6 16 -2 14 5 13 8 -7 20 l-24 14 24 -7 c18 -5
22 -3 15 7 -14 23 -13 38 4 51 15 11 15 11 5 -3 -13 -16 -8 -29 9 -29 5 0 6 4
3 10 -4 6 1 7 12 3 16 -6 17 -5 3 13 -8 10 -10 16 -6 12 5 -4 16 -2 25 5 14
10 14 10 3 -5 -8 -10 -9 -19 -3 -22 5 -3 11 -1 13 5 3 9 10 9 27 -1 18 -9 22
-9 16 0 -5 8 -3 11 6 8 8 -3 13 -14 11 -24 -2 -15 -1 -16 7 -4 7 9 6 19 -1 27
-13 17 4 17 21 1 8 -8 11 -8 8 -2 -9 16 19 38 35 28 7 -4 6 1 -3 12 -9 10 -20
27 -26 37 -9 17 -10 16 -29 -4 -19 -22 -19 -22 4 -14 21 6 20 3 -9 -24 -17
-17 -32 -31 -33 -31 -1 0 -2 12 -2 28 -1 15 1 21 3 15 3 -7 9 -13 15 -13 6 0
8 7 5 15 -4 8 -2 17 3 20 5 3 7 13 4 23 -5 13 -4 14 4 3 6 -9 12 -10 16 -3 4
6 13 9 21 5 9 -3 15 1 15 11 0 9 5 16 11 16 5 0 8 4 4 9 -3 5 0 13 6 17 8 4 9
3 5 -4 -4 -7 -3 -12 3 -12 5 0 11 5 13 11 2 5 17 12 33 13 27 3 27 3 11 -10
-11 -7 -23 -11 -29 -7 -6 4 -7 1 -2 -7 6 -9 4 -11 -5 -5 -8 5 -11 4 -7 -2 4
-6 -1 -10 -11 -9 -11 1 -17 -6 -17 -19 -1 -12 -7 -19 -15 -17 -10 3 -9 -3 4
-17 11 -12 21 -21 24 -21 3 0 2 3 -1 7 -8 8 12 33 26 33 7 0 7 -4 -1 -12 -15
-15 -16 -28 -2 -28 6 0 9 3 9 8 -1 4 0 10 1 15 4 12 7 26 9 38 0 5 5 8 10 4 5
-3 13 0 17 6 4 7 3 9 -4 5 -6 -3 -13 -2 -17 4 -3 5 0 10 8 10 24 0 27 26 7 65
-11 22 -13 32 -5 25 10 -9 15 -6 20 10 4 13 12 19 21 16 7 -3 16 -1 19 4 4 6
0 10 -7 10 -10 0 -9 3 1 9 20 13 52 -5 45 -24 -4 -8 -10 -12 -15 -9 -5 3 -7 9
-4 14 3 5 1 11 -4 15 -6 3 -8 -4 -6 -15 3 -13 0 -18 -7 -14 -7 4 -8 3 -4 -4 4
-7 2 -20 -3 -29 -8 -14 -10 -15 -11 -3 0 13 -2 13 -9 1 -10 -16 -4 -41 10 -41
5 0 8 3 8 8 -3 20 2 25 12 12 8 -11 9 -9 3 10 -6 22 -5 23 9 12 10 -9 17 -10
22 -2 4 6 1 9 -6 8 -6 -2 -14 3 -17 11 -2 8 0 11 6 8 5 -4 15 0 22 8 10 12 14
23 19 54 1 3 8 -4 17 -15 8 -10 13 -14 10 -8 -3 7 1 17 9 24 12 10 15 10 15 0
0 -8 3 -10 6 -7 4 4 1 13 -6 22 -10 12 -9 16 4 21 15 6 15 7 0 19 -12 8 -14
14 -6 19 7 4 12 2 12 -3 0 -6 5 -11 12 -11 9 0 9 3 0 12 -18 18 -14 32 5 17
11 -10 14 -10 9 -1 -4 6 -3 12 1 12 15 0 48 83 35 88 -7 2 -10 8 -7 12 3 5 1
11 -4 15 -6 3 -8 -4 -6 -16 3 -15 0 -19 -11 -15 -9 3 -18 6 -20 6 -2 0 -4 4
-4 10 0 5 7 7 15 3 9 -3 15 -2 14 3 -1 5 2 18 6 28 6 13 4 21 -3 24 -7 2 -12
8 -12 14 0 6 6 6 15 -2 12 -10 16 -9 22 5 4 12 0 23 -12 31 -17 13 -17 14 -2
14 19 0 23 15 7 25 -16 10 -1 25 17 18 10 -4 14 -2 10 4 -10 15 18 24 32 10
16 -16 13 0 -5 29 -16 23 -16 24 2 17 17 -6 17 -5 6 10 -8 9 -11 21 -7 28 5 8
0 9 -16 5 -13 -3 -18 -3 -11 0 9 4 10 10 3 18 -8 9 -7 13 4 13 8 0 12 -4 10
-8 -3 -4 2 -9 10 -13 8 -3 12 -11 9 -19 -3 -8 3 -20 12 -28 15 -12 16 -12 10
8 -5 16 -2 25 12 32 11 6 23 7 27 3 5 -4 6 0 3 8 -4 11 1 16 15 18 16 1 18 -1
8 -7 -7 -5 -9 -11 -4 -14 30 -18 44 69 15 92 -14 11 -14 13 -1 8 14 -5 16 25
15 311 -1 314 -1 317 -22 316 -11 0 -21 5 -21 12 0 9 7 10 23 4 21 -8 23 -7
21 20 -1 17 -7 28 -13 26 -6 -2 -17 0 -25 5 -11 7 -9 13 11 28 21 17 25 28 26
76 0 30 -3 51 -6 44 -6 -8 -9 -8 -15 1 -4 6 -13 9 -21 6 -18 -7 -18 2 2 21 23
23 2 40 -26 20 -13 -9 -17 -17 -11 -22 6 -3 11 -11 11 -16 0 -17 -19 1 -37 34
-12 25 -13 29 -2 20 10 -8 20 -9 29 -3 11 7 11 10 3 11 -7 1 -17 3 -23 4 -5 1
-15 3 -21 4 -5 0 -7 6 -4 11 4 6 12 7 18 4 7 -4 9 -4 5 1 -4 4 -2 15 4 24 7 9
1 6 -13 -7 -14 -12 -29 -19 -32 -15 -10 10 -8 25 2 19 14 -9 29 17 22 38 -7
17 -8 18 -14 3 -3 -9 -2 -17 4 -17 6 0 7 -5 4 -10 -5 -8 -11 -7 -21 1 -10 8
-11 16 -3 31 9 17 8 18 -10 9 -11 -6 -22 -7 -25 -2 -3 5 3 11 14 14 11 3 20
11 20 19 0 10 -2 10 -9 -1 -5 -8 -16 -11 -24 -8 -11 4 -15 1 -12 -14 4 -20 -9
-26 -20 -8 -4 6 -13 8 -20 5 -8 -3 -12 2 -10 12 2 9 4 20 4 23 1 4 11 9 24 12
22 6 22 6 -2 -12 -21 -16 -21 -19 -6 -24 21 -9 25 -9 24 1 -4 26 1 34 16 22
10 -9 15 -9 15 -1 0 6 -5 11 -11 11 -5 0 -7 5 -3 12 4 7 3 8 -4 4 -12 -7 -31
23 -25 41 2 6 -1 14 -6 18 -6 3 -11 1 -11 -6 0 -7 -3 -9 -7 -5 -4 4 -8 13 -8
19 0 17 -19 21 -23 5 -2 -9 0 -8 7 2 8 12 10 11 8 -7 0 -13 -7 -25 -14 -27 -8
-3 -10 1 -6 11 5 11 3 14 -6 9 -8 -5 -7 3 4 24 11 21 12 29 4 24 -9 -5 -10 -2
-6 9 10 27 -13 68 -35 61 -12 -3 -16 -1 -13 8 3 7 -4 19 -15 26 -25 15 -27 4
-2 -14 13 -10 14 -13 3 -14 -11 0 -10 -4 4 -14 25 -18 27 -40 3 -55 -11 -7
-17 -8 -14 -3 3 6 3 12 -1 15 -5 2 -3 2 4 1 6 -2 11 6 10 17 -1 19 -17 28 -17
9 0 -15 -17 -12 -23 4 -4 11 -1 13 11 9 14 -5 15 -4 4 8 -7 8 -19 14 -27 14
-8 0 -15 5 -14 10 0 6 -10 13 -23 17 l-23 6 23 1 c13 1 20 5 17 11 -4 6 -16 8
-28 5 l-22 -6 22 13 c12 7 22 18 23 23 1 6 3 12 6 14 2 2 1 -6 -1 -18 -2 -14
0 -19 7 -15 7 4 8 3 4 -4 -5 -8 -1 -10 11 -6 15 5 16 4 3 -5 -8 -6 -11 -11 -6
-11 5 0 3 -7 -4 -15 -9 -11 -9 -15 -1 -15 6 0 16 10 20 23 7 17 4 26 -12 40
l-22 18 22 -6 c23 -6 40 9 22 21 -8 5 -9 3 -4 -6 6 -10 4 -12 -9 -7 -10 4 -20
7 -22 7 -3 0 -2 6 2 13 9 13 -26 -11 -38 -28 -5 -6 -8 -6 -8 1 0 6 9 19 20 29
11 10 20 23 19 29 0 6 -3 6 -6 -2 -2 -6 -10 -9 -15 -6 -7 4 -8 2 -4 -4 4 -7
-4 -17 -21 -24 -15 -7 -32 -17 -36 -23 -5 -6 -7 -3 -3 7 3 10 1 20 -5 24 -6 3
-8 12 -5 20 3 7 1 16 -4 19 -6 4 -10 1 -10 -6 0 -10 -3 -10 -12 -1 -8 8 -8 15
1 26 10 12 9 15 -8 13 -15 -1 -20 -6 -16 -17 3 -9 -1 -7 -10 5 -9 11 -19 19
-23 17 -3 -2 -9 5 -13 15 -5 11 -8 13 -8 4 -1 -8 -4 -11 -7 -8 -4 4 -1 14 6
22 12 14 9 15 -21 10 -27 -4 -30 -3 -16 6 9 5 15 15 11 21 -5 7 -9 7 -13 -1
-4 -6 -12 -2 -20 10 -7 12 -8 18 -2 14 6 -3 11 -2 11 3 0 8 -22 22 -35 22 -6
0 1 -25 14 -49 14 -25 0 -54 -14 -30 -5 8 -4 10 3 5 7 -4 12 -4 12 1 0 12 -16
35 -24 34 -16 -2 -18 0 -7 13 18 21 -11 41 -39 26 -12 -6 -24 -9 -28 -6 -3 3
0 6 6 6 6 0 19 9 29 19 13 14 23 17 33 11 11 -7 12 -10 2 -10 -7 0 -10 -5 -7
-11 5 -7 13 -5 24 5 10 9 21 13 24 9 4 -3 7 -2 7 3 0 5 -10 15 -22 23 -21 13
-22 13 -9 -2 16 -20 8 -22 -21 -6 -16 9 -25 6 -46 -13 -15 -12 -21 -16 -14 -6
9 11 10 18 2 23 -5 3 -10 1 -10 -6 0 -20 -11 -3 -16 25 -3 18 0 26 10 26 14 0
31 29 21 38 -3 3 -5 0 -5 -6 0 -6 -10 -16 -22 -23 -18 -10 -20 -9 -15 5 4 11
1 19 -11 22 -9 3 -24 9 -32 14 -10 4 -23 2 -34 -6 -11 -7 -22 -11 -26 -9 -5 3
-10 -2 -13 -9 -3 -8 -1 -17 6 -20 9 -3 9 -5 0 -5 -7 -1 -17 8 -23 20 -10 17
-14 18 -28 7 -12 -10 -14 -10 -8 0 4 7 2 12 -4 12 -6 0 -8 5 -5 10 3 6 2 10
-4 10 -5 0 -11 -6 -14 -12 -3 -10 -8 -10 -18 1 -9 9 -10 11 -1 7 7 -4 15 -1
18 8 5 13 9 13 32 -2 21 -14 24 -14 17 -2 -6 11 -4 11 11 -2 10 -9 24 -17 29
-16 15 0 35 19 35 32 0 6 -7 3 -14 -6 -12 -17 -14 -17 -30 0 -9 10 -14 22 -11
25 3 4 -1 3 -7 -3 -14 -12 -31 -13 -24 -2 2 4 1 14 -3 21 -6 9 -11 10 -15 2
-4 -6 -2 -11 4 -11 6 0 8 -5 5 -10 -4 -6 -10 -8 -15 -5 -5 3 -11 1 -15 -5 -4
-6 -11 -8 -16 -5 -14 9 -23 -23 -10 -38 8 -10 7 -14 -4 -14 -7 0 -14 3 -13 6
2 20 -3 41 -9 39 -22 -4 -43 16 -37 34 5 17 3 18 -14 9 -16 -8 -21 -7 -26 5
-3 9 -11 12 -18 8 -7 -4 -10 -4 -6 1 4 4 0 14 -10 21 -9 7 -12 14 -6 14 6 0
19 -9 29 -20 19 -21 45 -27 45 -9 0 5 -4 8 -9 5 -4 -3 -17 4 -27 17 -15 16
-15 19 -2 9 15 -12 17 -11 15 7 -1 13 -6 20 -14 17 -18 -7 -44 4 -37 15 3 5 0
9 -5 9 -6 0 -11 -6 -11 -12 0 -9 -3 -10 -8 -2 -5 8 -112 11 -356 12 -316 1
-351 -1 -363 -16 -12 -16 -13 -16 -7 1 3 9 1 17 -5 17 -10 0 -15 -14 -12 -33
1 -5 -3 -6 -8 -3 -5 3 -14 -1 -21 -8 -9 -11 -9 -20 0 -36 6 -12 9 -25 5 -28
-3 -3 -8 4 -12 16 -7 28 -18 28 -37 0 -20 -28 -11 -38 10 -12 14 18 15 18 4
-3 -11 -23 -40 -32 -40 -12 0 5 -5 7 -11 4 -7 -5 -4 -14 7 -26 9 -11 14 -22
11 -26 -4 -3 -7 -1 -7 5 0 7 -4 12 -10 12 -5 0 -8 -6 -6 -12 1 -7 1 -10 -1 -5
-3 4 -10 4 -16 0 -7 -4 -6 1 2 10 8 10 11 20 7 24 -3 4 -13 -2 -21 -13 -8 -11
-15 -14 -15 -6 0 6 -4 12 -10 12 -5 0 -7 -6 -4 -13 3 -8 -2 -20 -11 -27 -8 -7
-15 -9 -15 -5 0 4 -8 1 -17 -6 -17 -13 -17 -13 0 7 19 23 22 34 8 34 -5 0 -16
-15 -25 -32 -8 -18 -16 -26 -16 -17 0 19 -27 21 -34 3 -3 -8 3 -18 12 -23 9
-6 13 -11 9 -11 -4 0 -19 8 -33 17 l-26 16 24 13 c12 7 26 10 30 8 4 -3 5 3 2
13 -4 14 -4 15 4 4 8 -11 10 -11 15 0 4 10 6 10 6 2 2 -23 46 31 46 56 1 14 7
27 14 29 8 3 11 0 7 -6 -3 -5 1 -13 9 -16 12 -4 14 -1 7 12 -11 24 -9 55 4 59
6 2 10 -11 9 -32 -1 -20 2 -38 8 -42 6 -4 7 -1 2 7 -6 9 -4 11 5 5 9 -6 11 -4
5 5 -6 9 -4 11 4 6 9 -6 8 -13 -6 -28 -13 -15 -14 -20 -4 -16 8 2 19 11 25 20
8 13 4 21 -15 36 -13 11 -21 24 -16 28 4 4 14 -1 22 -12 15 -19 15 -19 9 1 -4
15 -3 16 4 6 7 -9 12 -10 16 -2 4 6 2 11 -4 11 -6 0 -8 5 -5 10 4 6 14 1 25
-12 18 -22 19 -23 37 -4 17 18 17 18 -4 12 -12 -4 -24 -3 -27 2 -3 5 8 8 24 7
17 -1 30 1 30 5 0 4 -20 7 -45 6 -25 0 -45 -4 -45 -9 0 -5 -8 -3 -17 4 -11 10
-14 10 -9 2 8 -15 -5 -17 -19 -4 -6 6 -17 0 -29 -16z m272 -18 c-3 -3 -9 2
-12 12 -6 14 -5 15 5 6 7 -7 10 -15 7 -18z m542 11 c0 -3 -4 -8 -10 -11 -5 -3
-10 -1 -10 4 0 6 5 11 10 11 6 0 10 -2 10 -4z m80 -6 c0 -5 -5 -10 -11 -10 -5
0 -7 5 -4 10 3 6 8 10 11 10 2 0 4 -4 4 -10z m-643 -13 c0 -8 -6 -14 -14 -14
-9 0 -10 4 -2 14 6 7 12 13 14 13 1 0 2 -6 2 -13z m-63 -5 c2 -4 0 -14 -6 -22
-8 -12 -9 -11 -4 4 5 13 2 17 -9 12 -8 -3 -15 -1 -15 4 0 12 27 13 34 2z m121
-2 c3 -5 1 -10 -4 -10 -6 0 -11 5 -11 10 0 6 2 10 4 10 3 0 8 -4 11 -10z m509
-18 c3 -5 -1 -9 -9 -9 -8 0 -12 4 -9 9 3 4 7 8 9 8 2 0 6 -4 9 -8z m81 -2 c-3
-5 -12 -10 -18 -10 -7 0 -6 4 3 10 19 12 23 12 15 0z m52 -25 c5 -4 2 -4 -6 0
-11 6 -13 4 -8 -8 8 -22 4 -21 -16 1 -16 18 -16 19 3 17 11 -1 23 -5 27 -10z
m-702 -14 c3 -5 2 -12 -3 -15 -5 -3 -9 1 -9 9 0 17 3 19 12 6z m-85 -5 c0 -2
-7 -7 -16 -10 -8 -3 -12 -2 -9 4 6 10 25 14 25 6z m-34 -42 c1 -14 0 -23 -3
-20 -4 3 -8 18 -9 32 -2 14 0 24 3 20 3 -3 7 -17 9 -32z m844 29 c0 -5 -5 -15
-10 -23 -7 -12 -9 -10 -7 8 1 19 17 33 17 15z m211 -10 c13 -16 12 -17 -3 -4
-10 7 -18 15 -18 17 0 8 8 3 21 -13z m-977 -22 c-2 -3 -12 3 -22 13 -16 17
-16 18 5 5 12 -7 20 -15 17 -18z m803 7 c-3 -8 -6 -5 -6 6 -1 11 2 17 5 13 3
-3 4 -12 1 -19z m-77 6 c0 -8 -19 -13 -24 -6 -3 5 1 9 9 9 8 0 15 -2 15 -3z
m350 -27 c11 3 15 -5 15 -26 1 -25 -2 -28 -17 -20 -10 5 -18 6 -18 2 0 -4 -5
0 -11 9 -5 10 -16 15 -24 12 -20 -8 -19 5 2 28 14 16 19 17 28 6 5 -8 17 -12
25 -11z m-1254 -10 c1 -7 -9 -13 -22 -13 -23 0 -24 11 -1 11 7 1 11 7 9 15 -2
8 0 11 4 7 4 -4 9 -13 10 -20z m1019 5 c-3 -3 -11 0 -18 7 -9 10 -8 11 6 5 10
-3 15 -9 12 -12z m120 -32 c2 -12 1 -20 -2 -16 -4 4 -8 16 -10 28 -4 28 6 18
12 -12z m38 -15 c-3 -9 -8 -14 -10 -11 -3 3 -2 9 2 15 9 16 15 13 8 -4z m41
-1 c3 -8 2 -12 -4 -9 -6 3 -10 10 -10 16 0 14 7 11 14 -7z m-1407 -16 c-3 -8
-6 -5 -6 6 -1 11 2 17 5 13 3 -3 4 -12 1 -19z m1473 -18 c6 -11 8 -20 6 -20
-3 0 -10 9 -16 20 -6 11 -8 20 -6 20 3 0 10 -9 16 -20z m-1650 -25 c0 5 3 6 6
3 3 -4 0 -16 -6 -29 -10 -18 -10 -21 2 -16 8 3 21 1 29 -4 12 -8 12 -10 -1 -8
-31 3 -39 -1 -33 -18 5 -15 3 -14 -10 2 -14 17 -16 18 -17 3 0 -9 -4 -19 -9
-23 -6 -3 -8 7 -6 22 1 16 7 27 12 26 5 -1 9 11 8 27 -1 24 1 28 12 19 7 -6
13 -8 13 -4z m143 0 c-3 -9 -8 -14 -10 -11 -3 3 -2 9 2 15 9 16 15 13 8 -4z
m-197 -41 c-25 -18 -31 -12 -14 15 8 14 16 17 23 10 7 -7 4 -15 -9 -25z m-2
-26 c-3 -5 -12 -7 -19 -4 -14 5 -45 -24 -45 -42 0 -7 -7 -12 -15 -12 -9 0 -12
-6 -9 -15 4 -8 -1 -17 -10 -21 -9 -3 -14 -10 -11 -15 3 -4 13 -5 22 -2 15 6
16 5 3 -9 -13 -14 -16 -14 -26 0 -7 9 -19 13 -33 9 -19 -5 -20 -3 -9 10 7 9
12 18 11 20 -2 1 -3 8 -3 14 0 8 4 8 14 0 19 -16 32 5 16 24 -8 10 -9 15 -2
15 6 0 14 -4 17 -10 10 -16 19 -12 36 19 12 20 24 29 43 29 14 0 23 -5 20 -10z
m-8 -30 l19 -23 -22 19 c-23 19 -33 10 -11 -12 8 -8 5 -14 -15 -21 -15 -6 -27
-16 -27 -22 0 -8 6 -7 18 2 15 13 16 12 3 -3 -14 -19 -31 -15 -31 7 0 8 11 17
25 21 14 3 22 10 19 15 -3 5 -10 7 -15 4 -13 -9 -11 9 3 23 15 15 12 16 34
-10z m54 -2 c0 -2 -7 -7 -16 -10 -8 -3 -12 -2 -9 4 6 10 25 14 25 6z m31 -33
c13 -17 13 -17 -6 -3 -11 8 -22 16 -24 17 -2 2 0 3 6 3 6 0 17 -8 24 -17z
m1863 -32 c3 -5 -2 -15 -12 -22 -15 -12 -16 -12 -5 2 7 9 10 19 6 22 -3 4 -4
7 0 7 3 0 8 -4 11 -9z m26 -21 c0 -5 -5 -10 -11 -10 -5 0 -7 5 -4 10 3 6 8 10
11 10 2 0 4 -4 4 -10z m-2030 -34 c0 -2 -8 -10 -17 -17 -16 -13 -17 -12 -4 4
13 16 21 21 21 13z m2110 -16 c0 -5 -2 -10 -4 -10 -3 0 -8 5 -11 10 -3 6 -1
10 4 10 6 0 11 -4 11 -10z m40 -91 c0 -5 -5 -9 -12 -9 -6 0 -8 3 -5 7 4 3 1
13 -6 22 -11 14 -10 14 6 2 9 -7 17 -17 17 -22z m-2280 1 c0 -5 -4 -10 -10
-10 -5 0 -10 5 -10 10 0 6 5 10 10 10 6 0 10 -4 10 -10z m40 4 c0 -8 -19 -13
-24 -6 -3 5 1 9 9 9 8 0 15 -2 15 -3z m2364 -52 c3 -28 -22 -72 -41 -72 -4 0
4 11 17 25 23 25 16 37 -8 13 -7 -7 -12 -8 -12 -4 0 5 10 17 22 27 11 11 17
19 12 19 -6 0 -10 10 -11 21 -3 34 16 8 21 -29z m-2407 13 c0 -8 -4 -12 -9 -9
-5 3 -6 10 -3 15 9 13 12 11 12 -6z m-23 -46 c3 -3 -4 -5 -14 -6 -11 -1 -20 2
-20 7 0 8 25 8 34 -1z m2361 -8 c3 -5 2 -12 -3 -15 -5 -3 -9 1 -9 9 0 17 3 19
12 6z m-2411 -9 c3 -5 -1 -9 -9 -9 -8 0 -15 4 -15 9 0 4 4 8 9 8 6 0 12 -4 15
-8z m14 -47 c-3 -3 -9 2 -12 12 -6 14 -5 15 5 6 7 -7 10 -15 7 -18z m-101 -17
c1 -18 -1 -27 -4 -20 -3 6 -9 10 -13 7 -5 -3 -7 -12 -4 -20 4 -8 11 -12 17 -8
6 3 7 1 3 -5 -4 -6 -14 -8 -24 -5 -15 6 -15 5 -3 -11 8 -9 10 -16 5 -15 -20 4
-31 -2 -31 -16 0 -18 14 -20 20 -2 3 8 10 6 23 -7 13 -13 13 -16 2 -7 -12 9
-18 9 -23 1 -4 -6 -13 -9 -21 -6 -7 3 -16 1 -19 -4 -5 -9 6 -14 26 -12 3 1 6
-6 6 -14 0 -9 -4 -11 -10 -5 -11 11 -49 2 -42 -10 3 -4 12 -6 20 -2 10 3 15
-1 15 -13 0 -16 -2 -17 -10 -4 -9 13 -10 13 -10 0 0 -13 -1 -13 -11 0 -8 12
-9 11 -7 -5 3 -13 11 -19 23 -18 11 1 15 0 8 -3 -7 -3 -9 -12 -6 -20 4 -12 8
-12 22 -2 14 12 15 11 2 -5 -14 -18 -15 -18 -31 3 -15 20 -17 21 -31 4 -12
-16 -12 -17 3 -11 12 4 15 2 11 -9 -3 -9 0 -14 7 -12 7 2 15 -4 17 -12 3 -9 1
-11 -4 -5 -4 6 -14 10 -20 9 -7 -1 -18 -2 -24 -3 -5 0 -7 -7 -3 -13 6 -10 4
-10 -7 0 -18 17 -34 15 -19 -3 15 -18 37 -19 43 -2 4 9 6 9 6 -1 1 -8 -8 -16
-20 -19 -12 -4 -18 -11 -15 -20 3 -8 1 -11 -4 -8 -6 3 -10 -1 -10 -10 0 -9 4
-14 9 -10 5 3 12 1 15 -4 4 -5 -2 -8 -11 -6 -10 1 -25 -2 -33 -8 -12 -9 -13
-9 -2 3 15 17 16 40 1 40 -5 0 -8 -4 -5 -9 3 -5 0 -14 -7 -19 -9 -8 -16 -6
-25 9 -7 11 -8 19 -2 19 5 0 10 -4 10 -10 0 -18 16 -10 17 9 1 15 -4 18 -23
16 -13 -1 -27 2 -31 8 -3 6 -1 7 5 3 7 -4 13 -2 13 3 1 6 3 16 4 21 1 6 3 16
4 23 1 9 4 8 10 -2 7 -11 10 -9 16 8 4 14 12 20 21 17 15 -6 57 41 48 55 -3 5
0 9 6 9 6 0 8 5 5 10 -3 6 1 13 10 16 13 6 14 8 3 15 -9 6 -9 9 -1 9 6 0 10 9
8 20 -2 11 -1 19 3 18 4 -1 15 2 25 7 15 6 16 10 5 16 -10 7 -10 9 2 9 13 0
13 2 0 11 -12 9 -11 10 5 5 20 -6 20 -6 1 9 -19 14 -11 21 18 16 5 -1 6 5 3
13 -3 8 -3 17 0 20 13 13 20 4 20 -26z m2563 26 c0 -8 -19 -13 -24 -6 -3 5 1
9 9 9 8 0 15 -2 15 -3z m65 -16 c-2 -10 1 -18 7 -18 6 0 8 -3 5 -7 -8 -8 -48
27 -42 37 9 15 33 6 30 -12z m-45 -2 c0 -3 -4 -8 -10 -11 -5 -3 -10 -1 -10 4
0 6 5 11 10 11 6 0 10 -2 10 -4z m20 -26 c0 -5 -2 -10 -4 -10 -3 0 -8 5 -11
10 -3 6 -1 10 4 10 6 0 11 -4 11 -10z m-16 -18 c3 -5 -1 -9 -9 -9 -8 0 -12 4
-9 9 3 4 7 8 9 8 2 0 6 -4 9 -8z m-2569 -42 c3 -5 1 -10 -4 -10 -6 0 -11 5
-11 10 0 6 2 10 4 10 3 0 8 -4 11 -10z m2622 -18 c9 -5 6 -12 -10 -21 -21 -13
-21 -13 -7 4 14 17 13 18 -3 12 -11 -4 -16 -3 -12 3 7 12 16 12 32 2z m48 0
c-3 -3 0 -11 6 -18 7 -8 7 -14 -1 -19 -7 -4 -3 -13 9 -23 11 -9 21 -24 23 -32
2 -8 13 -25 25 -39 12 -14 20 -27 18 -31 -2 -3 10 -13 26 -23 17 -9 27 -12 24
-7 -3 6 1 7 10 4 14 -6 14 -8 -2 -20 -13 -10 -14 -13 -3 -11 8 2 12 2 7 0 -4
-3 -5 -9 -2 -14 3 -5 -11 -25 -31 -45 -20 -20 -31 -28 -25 -16 6 11 7 22 3 24
-4 2 -23 22 -41 45 -28 35 -32 45 -21 58 17 21 4 19 -33 -6 l-32 -21 24 21
c21 19 20 25 -1 22 -8 -1 -1 39 8 48 4 3 4 -2 1 -11 -3 -9 0 -21 7 -27 11 -9
13 -4 12 26 -2 30 -7 39 -27 44 -17 5 -19 7 -6 8 10 1 16 5 12 11 -3 5 -13 7
-23 4 -13 -5 -14 -4 -3 4 7 5 9 12 5 14 -5 3 -4 3 3 2 7 -2 15 1 18 6 4 6 1
10 -4 10 -6 0 -11 4 -11 8 0 5 7 9 15 9 8 0 13 -3 10 -5z m115 -117 c-7 -9
-15 -13 -17 -11 -7 7 7 26 19 26 6 0 6 -6 -2 -15z m31 -51 c10 -12 8 -14 -12
-10 -13 3 -27 5 -31 5 -5 1 -8 5 -8 9 0 14 38 11 51 -4z m-2870 -31 c13 -16
12 -17 -3 -4 -10 7 -18 15 -18 17 0 8 8 3 21 -13z m2729 -3 c0 -5 -2 -10 -4
-10 -3 0 -8 5 -11 10 -3 6 -1 10 4 10 6 0 11 -4 11 -10z m-30 -20 c0 -5 -5
-10 -11 -10 -5 0 -7 5 -4 10 3 6 8 10 11 10 2 0 4 -4 4 -10z m75 -33 c4 5 5 2
0 -5 -9 -17 -21 -5 -29 28 -5 23 -5 23 7 -3 7 -15 17 -24 22 -20z m-2957 2
c10 -13 10 -18 0 -22 -8 -3 -14 5 -14 20 -1 13 -1 23 0 21 1 -2 7 -10 14 -19z
m143 8 c-6 -8 -9 -16 -6 -19 3 -2 -2 -5 -10 -5 -13 0 -13 3 2 19 19 21 31 25
14 5z m2834 -37 c3 -5 1 -10 -4 -10 -6 0 -11 5 -11 10 0 6 2 10 4 10 3 0 8 -4
11 -10z m-2948 -6 c-3 -3 -12 -4 -19 -1 -8 3 -5 6 6 6 11 1 17 -2 13 -5z m70
0 c-3 -3 -12 -4 -19 -1 -8 3 -5 6 6 6 11 1 17 -2 13 -5z m-37 -14 c0 -5 -4
-10 -10 -10 -5 0 -10 5 -10 10 0 6 5 10 10 10 6 0 10 -4 10 -10z m93 -5 c4 -8
3 -16 -1 -19 -4 -3 -9 4 -9 15 -2 23 3 25 10 4z m2797 9 c0 -8 -19 -13 -24 -6
-3 5 1 9 9 9 8 0 15 -2 15 -3z m-2921 -33 c0 -10 -2 -11 -6 -3 -2 6 -8 10 -12
8 -4 -3 -8 1 -8 8 0 8 6 12 14 9 7 -3 13 -13 12 -22z m87 14 c-1 -8 -5 -17 -8
-21 -5 -4 -4 16 1 34 3 9 9 -1 7 -13z m2844 -5 c0 -5 -5 -10 -11 -10 -5 0 -7
5 -4 10 3 6 8 10 11 10 2 0 4 -4 4 -10z m65 0 c3 -6 -1 -7 -9 -4 -18 7 -21 14
-7 14 6 0 13 -4 16 -10z m-35 -14 c0 -2 -8 -10 -17 -17 -16 -13 -17 -12 -4 4
13 16 21 21 21 13z m-2993 -21 c0 -8 -4 -12 -9 -9 -5 3 -6 10 -3 15 9 13 12
11 12 -6z m58 -4 c3 -5 2 -12 -3 -15 -5 -3 -9 1 -9 9 0 17 3 19 12 6z m2905
-21 c0 -5 -5 -10 -11 -10 -5 0 -7 5 -4 10 3 6 8 10 11 10 2 0 4 -4 4 -10z
m-2923 -45 c0 -8 -4 -12 -9 -9 -5 3 -6 10 -3 15 9 13 12 11 12 -6z m0 -520 c0
-8 -4 -12 -9 -9 -5 3 -6 10 -3 15 9 13 12 11 12 -6z m38 -3 c-3 -3 -11 0 -18
7 -9 10 -8 11 6 5 10 -3 15 -9 12 -12z m60 9 c3 -5 2 -12 -3 -15 -5 -3 -9 1
-9 9 0 17 3 19 12 6z m2902 -11 c1 -11 -2 -22 -6 -24 -6 -4 -7 26 -2 42 3 8 7
-1 8 -18z m-77 -10 c0 -5 -2 -10 -4 -10 -3 0 -8 5 -11 10 -3 6 -1 10 4 10 6 0
11 -4 11 -10z m-2866 -19 c3 -4 -4 -17 -17 -27 -22 -19 -22 -19 -4 2 9 11 14
24 10 27 -3 4 -4 7 0 7 3 0 8 -4 11 -9z m-94 -21 c0 -5 -4 -10 -10 -10 -5 0
-10 5 -10 10 0 6 5 10 10 10 6 0 10 -4 10 -10z m2996 -7 c-1 -7 -6 -16 -10
-20 -4 -4 -6 -1 -4 7 2 10 -4 15 -19 14 -13 -1 -21 2 -18 5 7 13 53 7 51 -6z
m15 -30 c-12 -20 -14 -14 -5 12 4 9 9 14 11 11 3 -2 0 -13 -6 -23z m-2986 -3
c-3 -5 -11 -10 -16 -10 -6 0 -7 5 -4 10 3 6 11 10 16 10 6 0 7 -4 4 -10z
m2939 2 c3 -5 -1 -9 -9 -9 -8 0 -15 4 -15 9 0 4 4 8 9 8 6 0 12 -4 15 -8z m69
-7 c-3 -9 -8 -14 -10 -11 -3 3 -2 9 2 15 9 16 15 13 8 -4z m-37 -34 c-4 -6
-15 -10 -24 -10 -16 1 -16 2 0 6 11 3 15 10 11 21 -5 13 -3 14 7 5 7 -6 9 -16
6 -22z m-2859 -11 c-2 -11 -6 -22 -9 -26 -4 -3 -5 2 -3 13 2 10 4 21 4 26 1 4
3 7 6 7 3 0 4 -9 2 -20z m-30 -20 c-1 -11 -5 -20 -9 -20 -10 0 -10 4 -2 24 8
22 13 20 11 -4z m-84 -59 c6 -23 -9 -49 -20 -37 -4 5 -2 11 5 13 10 4 10 8 1
19 -6 8 -15 12 -19 9 -7 -4 -7 3 -1 34 2 9 29 -22 34 -38z m114 24 c0 -8 -4
-12 -9 -9 -4 3 -8 9 -8 15 0 5 4 9 8 9 5 0 9 -7 9 -15z m2780 0 c4 -4 3 -5 -4
-2 -6 4 -13 2 -15 -5 -3 -8 -6 -6 -10 4 -7 17 15 19 29 3z m-44 -50 c-3 -9 -8
-14 -10 -11 -3 3 -2 9 2 15 9 16 15 13 8 -4z m-2711 -2 c-6 -2 -9 -10 -6 -15
4 -7 2 -8 -5 -4 -13 9 -5 26 12 25 9 0 8 -2 -1 -6z m19 -46 c-6 -8 -8 -17 -4
-21 4 -4 0 -4 -10 0 -17 6 -17 7 0 20 23 17 28 18 14 1z m2704 -37 c3 -6 -1
-7 -9 -4 -18 7 -21 14 -7 14 6 0 13 -4 16 -10z m-2749 -32 c4 -7 4 -10 -1 -6
-4 4 -14 3 -22 -3 -8 -8 -13 -8 -13 -1 0 6 6 13 13 15 6 3 13 6 14 6 1 1 5 -5
9 -11z m2715 -31 c-10 -9 -11 -8 -5 6 3 10 9 15 12 12 3 -3 0 -11 -7 -18z m3
-56 c17 -7 26 -7 30 2 3 9 5 9 5 0 2 -21 -18 -24 -46 -9 -32 17 -26 21 11 7z
m-24 -16 c0 -2 -6 -5 -13 -8 -8 -3 -14 1 -14 8 0 7 6 11 14 8 7 -3 13 -6 13
-8z m36 -16 c3 -6 -1 -18 -10 -27 -10 -11 -16 -12 -16 -4 0 7 -3 11 -7 11 -5
-1 -15 -1 -23 0 -13 1 -13 2 0 11 9 5 19 5 26 -1 8 -7 15 -6 20 2 4 8 3 9 -4
5 -7 -4 -12 -2 -12 3 0 14 17 14 26 0z m-47 -46 c2 -1 -2 -9 -8 -17 -9 -10 -9
-16 -1 -21 7 -4 8 -11 1 -18 -5 -7 -11 -16 -13 -22 -1 -5 -7 -10 -13 -10 -19
-1 -35 -16 -29 -28 4 -7 -4 -2 -17 10 -19 17 -28 20 -44 12 -20 -10 -20 -10
-1 5 14 12 23 13 33 5 17 -14 17 3 1 20 -7 8 -1 6 15 -4 15 -9 27 -13 27 -7 0
6 -8 15 -17 21 -10 5 -14 13 -9 18 5 4 11 2 14 -6 4 -11 6 -11 14 0 8 11 9 10
5 -3 -3 -9 0 -21 6 -27 9 -7 12 1 13 35 0 24 -4 44 -8 44 -4 0 -8 5 -8 11 0 8
6 7 18 -2 9 -7 19 -15 21 -16z m-39 -14 c0 -14 -17 -10 -23 5 -4 10 -1 13 9 9
7 -3 14 -9 14 -14z m-2480 -13 c0 -3 -4 -8 -10 -11 -5 -3 -10 -1 -10 4 0 6 5
11 10 11 6 0 10 -2 10 -4z m2404 -38 c-2 -3 -13 -6 -24 -5 -24 2 -18 13 9 13
11 0 18 -4 15 -8z m-2309 -38 c3 -5 1 -10 -4 -10 -6 0 -11 5 -11 10 0 6 2 10
4 10 3 0 8 -4 11 -10z m39 -61 c3 -3 -6 -6 -19 -7 -14 -1 -25 2 -25 6 0 9 36
9 44 1z m2209 -39 c3 -11 1 -18 -4 -14 -5 3 -9 12 -9 20 0 9 -5 12 -12 8 -7
-4 -8 -3 -4 5 10 15 22 7 29 -19z m-2214 -6 c-9 -11 -9 -17 1 -29 13 -16 36
-20 43 -7 2 4 2 2 1 -5 -2 -6 4 -17 12 -24 11 -9 12 -15 3 -25 -14 -17 2 -18
20 -1 11 10 12 9 6 -2 -6 -11 -2 -13 18 -9 15 3 24 2 22 -3 -3 -4 -3 -14 0
-21 6 -14 17 -18 57 -19 10 0 20 -4 23 -10 4 -5 -2 -6 -11 -2 -13 5 -15 3 -9
-8 8 -12 6 -12 -8 0 -10 8 -20 11 -23 8 -3 -3 10 -16 28 -29 18 -12 33 -30 33
-38 0 -8 4 -18 10 -22 19 -14 26 -8 15 13 -7 11 -9 24 -5 27 3 3 8 -4 12 -16
6 -25 13 -27 32 -9 10 8 12 8 7 0 -3 -6 2 -16 11 -22 10 -6 13 -11 8 -11 -6 0
-17 6 -24 13 -11 10 -13 9 -8 -5 7 -19 -17 -43 -33 -33 -6 3 -8 10 -5 15 3 5
-4 14 -15 20 -11 6 -18 15 -15 21 9 14 -8 11 -32 -6 -21 -15 -22 -15 -18 14 3
25 -3 36 -33 63 -20 17 -29 29 -19 25 13 -5 17 -3 15 5 -3 7 -11 13 -19 13 -8
0 -17 5 -21 10 -5 6 -8 4 -8 -4 0 -11 -4 -11 -18 2 -10 10 -21 15 -24 12 -2
-3 -17 9 -33 25 -16 17 -25 30 -21 30 5 0 3 6 -3 14 -10 12 -8 17 9 26 11 6
17 16 14 22 -4 7 -2 8 5 4 9 -6 9 -11 0 -22z m2168 -6 c-3 -8 -6 -5 -6 6 -1
11 2 17 5 13 3 -3 4 -12 1 -19z m-2143 -14 c3 -8 2 -12 -4 -9 -6 3 -10 10 -10
16 0 14 7 11 14 -7z m2170 -46 c-3 -7 -17 -22 -32 -33 -15 -10 -22 -13 -15 -5
6 8 12 20 12 25 1 6 5 10 10 10 5 0 13 3 17 8 11 11 14 9 8 -5z m-2084 -8 c0
-5 -2 -10 -4 -10 -3 0 -8 5 -11 10 -3 6 -1 10 4 10 6 0 11 -4 11 -10z m57 -25
c0 -8 -4 -12 -9 -9 -5 3 -6 10 -3 15 9 13 12 11 12 -6z m1859 -34 c1 -23 -1
-27 -11 -18 -9 9 -10 14 -1 19 6 4 7 8 3 8 -5 0 -5 5 -2 10 9 15 10 13 11 -19z
m84 -16 c-7 -8 -17 -12 -23 -8 -6 4 -3 11 8 19 23 17 32 10 15 -11z m-1870
-39 c-4 -4 -16 -4 -26 2 -16 9 -14 10 8 9 15 -1 23 -6 18 -11z m35 -6 c-3 -5
-12 -10 -18 -10 -7 0 -6 4 3 10 19 12 23 12 15 0z m1635 -10 c-6 -11 -13 -20
-16 -20 -2 0 0 9 6 20 6 11 13 20 16 20 2 0 0 -9 -6 -20z m-24 -52 c4 -7 3 -8
-4 -4 -7 4 -12 2 -12 -5 0 -7 -3 -10 -6 -6 -6 5 3 27 11 27 2 0 7 -5 11 -12z
m-1539 -14 c-3 -3 -12 -4 -19 -1 -8 3 -5 6 6 6 11 1 17 -2 13 -5z m1439 -30
c1 -9 0 -13 -4 -10 -3 4 -7 14 -8 22 -1 9 0 13 4 10 3 -4 7 -14 8 -22z m-1361
-22 c-3 -3 -11 0 -18 7 -9 10 -8 11 6 5 10 -3 15 -9 12 -12z m225 12 c0 -8
-19 -13 -24 -6 -3 5 1 9 9 9 8 0 15 -2 15 -3z m-95 -24 c3 -6 -1 -7 -9 -4 -18
7 -21 14 -7 14 6 0 13 -4 16 -10z m990 0 c3 -5 1 -10 -4 -10 -6 0 -11 5 -11
10 0 6 2 10 4 10 3 0 8 -4 11 -10z m150 -8 c-3 -3 -11 0 -18 7 -9 10 -8 11 6
5 10 -3 15 -9 12 -12z m-988 -7 c0 -8 -4 -12 -9 -9 -5 3 -6 10 -3 15 9 13 12
11 12 -6z m914 1 c5 3 9 2 8 -3 -3 -20 2 -34 11 -28 6 4 8 11 5 16 -3 5 2 6
11 2 12 -5 15 -3 9 6 -6 10 -3 11 14 2 11 -7 21 -9 21 -6 0 3 10 0 22 -6 l22
-12 -23 -18 c-13 -11 -27 -16 -32 -13 -8 5 -13 -9 -10 -28 1 -10 -13 -10 -22
-1 -4 3 -2 11 3 18 7 8 5 12 -5 12 -8 0 -12 -3 -10 -7 2 -3 0 -12 -6 -20 -7
-13 -9 -13 -9 0 -1 12 -3 11 -11 -3 -6 -9 -14 -15 -19 -12 -17 11 -21 -30 -4
-42 11 -8 13 -13 5 -13 -7 0 -10 -4 -7 -8 4 -7 -36 -8 -89 -3 -5 1 3 10 19 20
17 11 33 18 37 15 4 -2 10 3 13 12 3 9 2 12 -5 9 -5 -4 -17 -1 -26 7 -14 11
-16 11 -10 -4 4 -13 2 -15 -10 -11 -10 4 -14 2 -9 -5 8 -14 -8 -24 -27 -16 -9
3 -13 12 -10 21 5 12 3 14 -7 8 -9 -5 -11 -4 -6 4 9 14 26 5 26 -15 0 -8 5
-14 12 -14 6 0 8 3 5 7 -9 8 23 44 33 38 11 -7 33 52 24 66 -5 8 -3 9 5 4 8
-4 10 -17 7 -31 -5 -17 -2 -24 8 -24 10 0 13 9 11 30 -3 18 0 28 5 25 6 -4 10
-13 10 -21 0 -8 5 -12 11 -9 7 5 5 15 -5 31 -9 13 -16 27 -15 31 0 4 3 2 6 -5
2 -6 9 -10 14 -6z m-154 -20 c0 -15 -21 -16 -34 -1 -4 4 -3 5 4 1 6 -3 14 -2
18 4 8 14 12 13 12 -4z m-787 -11 c0 -2 -6 -5 -13 -8 -8 -3 -14 1 -14 8 0 7 6
11 14 8 7 -3 13 -6 13 -8z m85 6 c3 -5 2 -12 -3 -15 -5 -3 -9 1 -9 9 0 17 3
19 12 6z m788 -28 c-4 -10 -9 -11 -19 -2 -18 15 -18 15 5 15 11 0 17 -5 14
-13z m-892 -17 c5 3 9 0 9 -6 0 -7 -8 -9 -22 -4 -20 6 -21 5 -9 -9 14 -18 31
-18 43 -2 5 6 8 6 8 -1 0 -6 -10 -19 -22 -30 -12 -10 -18 -13 -13 -5 5 9 3 12
-6 9 -8 -3 -14 -9 -14 -14 0 -5 -4 -15 -9 -22 -7 -11 -4 -12 11 -4 11 6 25 7
33 2 7 -4 19 -6 26 -3 6 2 14 1 17 -4 3 -4 -19 -9 -49 -9 -55 -1 -63 8 -41 44
5 6 4 12 -2 12 -5 0 -11 -5 -13 -12 -3 -7 -7 -5 -11 6 -5 11 -3 15 5 10 7 -5
8 -3 3 5 -6 10 -3 11 15 1 17 -9 21 -9 18 0 -2 6 -7 11 -12 10 -5 -1 -12 2
-15 7 -3 5 -14 1 -23 -9 -10 -10 -13 -18 -7 -18 6 0 8 -7 5 -16 -3 -8 -2 -12
3 -9 5 3 12 1 16 -5 3 -5 1 -10 -5 -10 -6 0 -8 -6 -4 -12 5 -10 4 -10 -5 -2
-7 6 -13 18 -14 25 -2 8 -7 20 -11 28 -11 17 28 53 48 45 8 -3 18 0 22 7 6 10
9 10 12 1 2 -7 8 -10 13 -6z m52 -1 c-3 -9 -8 -14 -10 -11 -3 3 -2 9 2 15 9
16 15 13 8 -4z m42 5 c3 -6 -1 -7 -9 -4 -18 7 -21 14 -7 14 6 0 13 -4 16 -10z
m49 -2 c-3 -4 -11 -5 -19 -1 -21 7 -19 12 4 10 11 0 18 -5 15 -9z m561 -6 c-3
-3 -11 0 -18 7 -9 10 -8 11 6 5 10 -3 15 -9 12 -12z m45 8 c0 -5 -5 -10 -11
-10 -5 0 -7 5 -4 10 3 6 8 10 11 10 2 0 4 -4 4 -10z m114 1 c3 -5 -1 -14 -10
-21 -12 -11 -17 -11 -27 0 -9 10 -9 11 1 6 6 -4 17 -4 24 0 8 5 6 10 -8 15
-16 6 -16 8 -2 8 9 1 19 -3 22 -8z m-54 -15 c0 -3 -4 -8 -10 -11 -5 -3 -10 -1
-10 4 0 6 5 11 10 11 6 0 10 -2 10 -4z m-763 -30 c-7 -17 16 -39 28 -28 5 4 5
1 1 -6 -6 -11 -12 -10 -27 4 -11 10 -19 12 -19 6 0 -7 -5 -12 -10 -12 -6 0 -3
11 7 25 20 28 28 32 20 11z m43 -1 c-7 -8 -17 -15 -23 -15 -6 0 -2 7 9 15 25
19 30 19 14 0z m637 -7 c2 -17 0 -19 -7 -8 -5 8 -6 18 -4 22 8 12 10 10 11
-14z m-580 -12 c4 -4 1 -6 -7 -4 -8 2 -14 -2 -13 -8 1 -6 -5 -11 -12 -11 -10
0 -12 4 -5 12 5 7 7 14 4 18 -3 3 1 4 10 3 8 -1 19 -6 23 -10z m681 -32 c2 -1
-4 -4 -13 -8 -9 -3 -13 -2 -10 4 3 6 1 10 -4 10 -6 0 -11 5 -11 11 0 8 6 7 18
-2 9 -7 18 -14 20 -15z m-88 1 c-7 -8 -17 -15 -23 -15 -6 0 -2 7 9 15 25 19
30 19 14 0z m-650 -5 c0 -5 -5 -10 -11 -10 -5 0 -7 5 -4 10 3 6 8 10 11 10 2
0 4 -4 4 -10z"/>
<path d="M2230 2914 c-8 -8 -9 -14 -4 -12 5 1 20 -4 32 -11 13 -7 26 -10 30
-7 3 3 0 6 -7 6 -7 0 -9 5 -6 10 4 6 3 10 -2 9 -20 -3 -34 2 -28 11 10 16 -1
12 -15 -6z"/>
<path d="M495 2661 c-3 -6 -11 -9 -16 -6 -5 4 -9 1 -9 -4 0 -13 10 -14 30 -1
8 5 12 12 8 15 -3 4 -9 1 -13 -4z"/>
<path d="M120 2095 c-12 -13 -27 -22 -31 -19 -4 2 -13 -5 -19 -16 -6 -11 -15
-18 -20 -15 -4 3 -7 -3 -6 -12 2 -10 5 -16 8 -13 3 3 15 -3 26 -13 17 -15 20
-16 25 -3 4 9 -2 21 -13 29 -18 13 -18 13 0 25 14 9 20 8 23 -1 4 -9 6 -9 6 1
1 8 6 10 14 6 9 -5 9 -4 0 6 -10 11 -9 17 4 32 25 27 10 22 -17 -7z m-20 -81
c0 -2 -8 0 -19 5 -10 6 -22 7 -26 3 -5 -4 -5 -1 -1 6 5 9 12 9 27 2 10 -6 19
-13 19 -16z"/>
<path d="M2950 2101 c0 -5 7 -14 15 -21 12 -10 13 -16 4 -26 -9 -11 -3 -24 26
-59 33 -41 55 -50 55 -24 0 6 -5 7 -12 3 -7 -4 -8 -3 -4 5 6 9 11 9 22 0 10
-8 14 -8 14 0 0 6 -5 11 -10 11 -6 0 -10 7 -8 15 2 9 -8 21 -21 28 -13 6 -22
15 -20 19 5 8 -41 58 -53 58 -4 0 -8 -4 -8 -9z m45 -39 c-9 -9 37 -52 49 -45
6 3 3 -2 -6 -13 -14 -14 -20 -15 -30 -6 -9 9 -9 12 1 12 7 0 9 5 6 10 -4 6
-10 8 -14 6 -4 -3 -13 -1 -21 5 -9 5 -10 9 -3 9 15 0 11 23 -7 46 -14 18 -13
18 8 0 12 -11 20 -22 17 -24z"/>
<path d="M439 508 c7 -10 10 -18 5 -18 -4 0 3 -11 15 -24 23 -24 43 -29 50
-11 2 6 -6 15 -18 21 -11 6 -31 19 -43 30 -18 15 -20 16 -9 2z m53 -42 c3 3 8
1 12 -4 11 -18 -25 -8 -41 12 -18 21 -18 21 3 3 11 -9 23 -14 26 -11z"/>
<path d="M607 358 c15 -15 23 -28 18 -28 -5 0 -4 -5 3 -12 8 -8 15 -9 22 -2 7
7 0 18 -20 33 -17 12 -28 26 -26 30 3 4 -2 8 -10 8 -10 0 -6 -9 13 -29z"/>
<path d="M707 266 c-4 -10 -1 -13 8 -9 8 3 12 9 9 14 -7 12 -11 11 -17 -5z"/>
<path d="M2102 145 c-16 -13 -31 -23 -34 -20 -2 2 -5 -6 -5 -18 -2 -20 -1 -20
8 -4 6 9 15 15 20 11 5 -3 8 -1 7 4 -2 6 0 9 4 9 4 -1 14 7 22 18 12 16 17 18
28 7 11 -11 10 -12 -4 -7 -10 4 -18 3 -18 -3 0 -13 27 -9 42 6 7 7 10 12 8 13
-3 0 -15 2 -27 5 -13 2 -33 -6 -51 -21z"/>
<path d="M2017 96 c-4 -10 1 -12 14 -9 23 6 24 9 5 16 -8 3 -17 0 -19 -7z"/>
<path d="M1995 36 c-14 -10 -11 -12 17 -11 18 0 33 5 33 9 0 14 -32 15 -50 2z"/>
<path d="M1950 3088 c0 -4 10 -7 23 -5 14 1 21 -3 19 -11 -1 -8 2 -11 8 -7 14
9 13 -8 -2 -24 -9 -10 -10 -12 -1 -7 13 7 37 -29 29 -43 -7 -10 14 -27 31 -27
7 1 19 10 28 21 l15 20 -6 -20 c-3 -11 4 -5 16 14 16 25 18 36 10 45 -9 8 -11
6 -8 -8 1 -10 -2 -21 -8 -23 -7 -2 -10 12 -9 39 l1 43 -73 0 c-40 1 -73 -3
-73 -7z m133 -16 c5 -8 4 -19 -3 -28 -8 -8 -8 -14 -2 -14 6 0 9 -6 8 -12 -3
-20 -25 -55 -26 -41 0 7 -6 11 -12 9 -7 -1 -10 -1 -5 1 4 3 -2 17 -13 32 -11
16 -17 31 -13 34 3 4 1 13 -5 20 -10 11 -5 14 26 13 20 -1 41 -7 45 -14z"/>
<path d="M2025 3060 c2 -26 34 -72 45 -65 7 4 6 13 0 25 -7 13 -7 21 0 25 5 3
10 12 9 18 0 9 -2 9 -6 0 -6 -16 -24 -17 -20 -2 1 6 -5 13 -14 14 -9 2 -15 -4
-14 -15z m33 -35 c6 -14 10 -25 8 -25 -2 0 -11 11 -20 25 -9 14 -13 25 -8 25
5 0 14 -11 20 -25z"/>
<path d="M2155 3090 c-4 -6 -12 -7 -18 -4 -7 4 -8 3 -4 -1 13 -15 34 -14 34 1
0 17 -4 18 -12 4z"/>
<path d="M896 3082 c-3 -5 1 -9 9 -9 8 0 12 4 9 9 -3 4 -7 8 -9 8 -2 0 -6 -4
-9 -8z"/>
<path d="M2110 3081 c0 -10 29 -36 34 -30 1 2 -6 12 -16 22 -10 9 -18 13 -18
8z"/>
<path d="M2184 3058 l-19 -23 23 19 c21 18 27 26 19 26 -2 0 -12 -10 -23 -22z"/>
<path d="M1082 3048 c-6 -8 -7 -19 -3 -26 6 -10 11 -9 21 3 9 11 10 19 3 26
-7 7 -14 5 -21 -3z"/>
<path d="M895 3040 c-3 -5 -1 -10 4 -10 6 0 11 5 11 10 0 6 -2 10 -4 10 -3 0
-8 -4 -11 -10z"/>
<path d="M919 3013 c-13 -16 -12 -17 4 -4 9 7 17 15 17 17 0 8 -8 3 -21 -13z"/>
<path d="M2157 3023 c-10 -9 -9 -23 1 -23 5 0 9 7 9 15 0 17 -1 18 -10 8z"/>
<path d="M2190 3010 c-9 -6 -10 -10 -3 -10 6 0 15 5 18 10 8 12 4 12 -15 0z"/>
<path d="M985 2977 c-11 -35 -12 -56 -3 -51 5 3 7 13 6 22 -2 11 4 17 16 17
24 0 30 30 6 32 -10 1 -21 -8 -25 -20z"/>
<path d="M873 2975 c0 -8 4 -15 9 -15 4 0 8 4 8 9 0 6 -4 12 -8 15 -5 3 -9 -1
-9 -9z"/>
<path d="M2190 2980 c0 -5 5 -10 11 -10 5 0 7 5 4 10 -3 6 -8 10 -11 10 -2 0
-4 -4 -4 -10z"/>
<path d="M2258 2958 c5 -5 16 -8 23 -6 8 3 3 7 -10 11 -17 4 -21 3 -13 -5z"/>
<path d="M2315 2941 c-3 -5 -2 -12 3 -15 5 -3 9 1 9 9 0 17 -3 19 -12 6z"/>
<path d="M792 2913 c-10 -4 -8 -8 5 -18 18 -13 33 -11 33 5 0 11 -22 18 -38
13z"/>
<path d="M720 2895 c-7 -9 -8 -15 -2 -15 5 0 12 7 16 15 3 8 4 15 2 15 -2 0
-9 -7 -16 -15z"/>
<path d="M2366 2897 c3 -10 9 -15 12 -12 3 3 0 11 -7 18 -10 9 -11 8 -5 -6z"/>
<path d="M2435 2900 c3 -5 8 -10 11 -10 2 0 4 5 4 10 0 6 -5 10 -11 10 -5 0
-7 -4 -4 -10z"/>
<path d="M678 2872 c3 -10 1 -13 -6 -8 -7 4 -12 2 -12 -3 0 -17 18 -13 29 7 7
14 6 19 -4 19 -7 0 -11 -7 -7 -15z"/>
<path d="M2345 2880 c-4 -6 -10 -8 -14 -6 -4 3 -8 -1 -8 -9 0 -8 3 -13 5 -10
3 3 11 0 18 -6 9 -7 14 -6 20 2 4 7 2 15 -4 17 -7 2 -10 8 -6 13 3 5 3 9 0 9
-3 0 -8 -5 -11 -10z"/>
<path d="M2390 2870 c-8 -5 -10 -10 -5 -10 6 0 17 5 25 10 8 5 11 10 5 10 -5
0 -17 -5 -25 -10z"/>
<path d="M2430 2876 c0 -2 8 -10 18 -17 15 -13 16 -12 3 4 -13 16 -21 21 -21
13z"/>
<path d="M2470 2861 c0 -5 8 -15 18 -22 15 -12 16 -12 5 2 -7 9 -10 19 -6 22
3 4 1 7 -5 7 -7 0 -12 -4 -12 -9z"/>
<path d="M2460 2824 c0 -5 5 -15 12 -22 9 -9 9 -12 1 -12 -7 0 -15 5 -18 10
-3 6 -11 10 -18 10 -6 0 -3 -6 8 -13 12 -9 15 -19 10 -28 -5 -8 -5 -11 0 -7
10 9 37 -11 30 -22 -3 -4 3 -7 12 -6 10 0 18 -5 19 -11 1 -7 2 -19 3 -26 0 -8
12 -13 28 -12 29 1 37 13 24 34 -12 18 -32 5 -25 -17 5 -14 4 -15 -5 -2 -6 8
-8 22 -6 30 3 8 -5 21 -16 28 -12 8 -18 9 -14 3 3 -6 1 -11 -4 -11 -15 0 -14
23 2 39 8 10 8 12 0 7 -6 -3 -19 4 -27 16 -9 12 -16 18 -16 12z m108 -129 c-3
-3 -9 2 -12 12 -6 14 -5 15 5 6 7 -7 10 -15 7 -18z"/>
<path d="M2520 2779 c0 -4 6 -9 13 -12 8 -3 14 0 14 7 0 7 -6 13 -14 13 -7 0
-13 -4 -13 -8z"/>
<path d="M2580 2740 c0 -5 4 -10 9 -10 5 0 8 -11 6 -25 -1 -14 2 -25 8 -25 6
0 2 -7 -9 -16 -10 -8 -14 -13 -7 -10 13 7 27 -11 28 -34 0 -8 9 -15 20 -15 13
0 20 6 19 17 -1 10 7 20 17 23 11 4 19 11 19 17 0 7 -4 7 -12 1 -18 -13 -68
-15 -68 -2 0 5 4 8 10 4 5 -3 3 7 -5 22 -8 16 -10 30 -5 33 5 3 0 11 -10 18
-12 7 -20 8 -20 2z m67 -112 c2 -18 0 -20 -7 -8 -8 12 -10 13 -10 1 0 -8 -3
-11 -6 -8 -4 4 -1 13 6 22 16 19 15 19 17 -7z"/>
<path d="M2635 2719 c-3 -4 2 -6 10 -5 21 3 28 13 10 13 -9 0 -18 -4 -20 -8z"/>
<path d="M2630 2689 c0 -5 5 -7 10 -4 6 3 10 8 10 11 0 2 -4 4 -10 4 -5 0 -10
-5 -10 -11z"/>
<path d="M405 2680 c-3 -6 1 -7 9 -4 18 7 21 14 7 14 -6 0 -13 -4 -16 -10z"/>
<path d="M375 2660 c-3 -5 -1 -10 4 -10 6 0 11 5 11 10 0 6 -2 10 -4 10 -3 0
-8 -4 -11 -10z"/>
<path d="M2710 2646 c0 -2 7 -7 16 -10 8 -3 12 -2 9 4 -6 10 -25 14 -25 6z"/>
<path d="M370 2617 c0 -4 7 -7 16 -5 10 2 19 -3 22 -11 3 -8 0 -11 -7 -7 -6 4
-11 3 -11 -2 0 -12 26 -23 33 -15 12 11 -16 52 -34 50 -11 -1 -19 -5 -19 -10z"/>
<path d="M314 2560 c0 -13 4 -16 10 -10 7 7 7 13 0 20 -6 6 -10 3 -10 -10z"/>
<path d="M2766 2541 c-3 -5 1 -11 9 -14 9 -4 12 -1 8 9 -6 16 -10 17 -17 5z"/>
<path d="M339 2528 c15 -21 2 -24 -19 -5 -12 10 -12 9 -2 -5 9 -11 10 -18 2
-23 -6 -3 -8 -10 -5 -15 3 -4 -2 -10 -10 -14 -8 -3 -19 3 -24 12 -6 9 -11 12
-11 5 0 -6 5 -15 10 -18 16 -10 -10 -37 -27 -31 -9 4 -11 1 -7 -6 4 -6 -1 -17
-11 -25 -11 -7 -14 -13 -9 -13 6 0 20 9 32 20 12 12 22 18 22 14 0 -3 8 0 17
7 15 12 16 12 10 -3 -4 -12 -2 -15 9 -11 10 4 12 9 6 15 -7 7 1 20 21 38 l32
29 -24 23 c-14 13 -19 15 -12 6z m4 -50 c-20 -20 -21 -20 -19 -2 2 10 9 18 15
17 6 -2 11 2 11 9 0 6 3 8 7 4 4 -3 -3 -16 -14 -28z m-33 -22 c0 -2 -8 -10
-17 -17 -16 -13 -17 -12 -4 4 13 16 21 21 21 13z"/>
<path d="M279 2513 c-13 -16 -12 -17 4 -4 9 7 17 15 17 17 0 8 -8 3 -21 -13z"/>
<path d="M295 2499 c-4 -6 -5 -12 -2 -15 2 -3 7 2 10 11 7 17 1 20 -8 4z"/>
<path d="M2861 2403 c15 -25 14 -25 46 -28 12 -1 20 2 17 7 -3 4 -10 6 -15 2
-6 -3 -22 5 -36 17 -25 24 -26 24 -12 2z"/>
<path d="M195 2381 c-6 -11 13 -26 22 -17 4 3 1 6 -6 6 -7 0 -9 5 -6 10 3 6 4
10 1 10 -3 0 -7 -4 -11 -9z"/>
<path d="M166 2338 c3 -5 10 -6 15 -3 13 9 11 12 -6 12 -8 0 -12 -4 -9 -9z"/>
<path d="M2926 2338 c3 -5 10 -6 15 -3 13 9 11 12 -6 12 -8 0 -12 -4 -9 -9z"/>
<path d="M2950 2301 c0 -6 4 -13 10 -16 6 -3 7 1 4 9 -7 18 -14 21 -14 7z"/>
<path d="M130 2259 c0 -5 5 -7 10 -4 6 3 10 8 10 11 0 2 -4 4 -10 4 -5 0 -10
-5 -10 -11z"/>
<path d="M2995 2231 c-3 -5 -2 -12 3 -15 5 -3 9 1 9 9 0 17 -3 19 -12 6z"/>
<path d="M96 2213 c-6 -14 -5 -15 5 -6 7 7 10 15 7 18 -3 3 -9 -2 -12 -12z"/>
<path d="M3050 2200 c0 -5 5 -10 11 -10 5 0 7 5 4 10 -3 6 -8 10 -11 10 -2 0
-4 -4 -4 -10z"/>
<path d="M45 2180 c-18 -8 -18 -9 -2 -9 12 -1 16 -6 11 -13 -4 -7 -3 -9 1 -5
7 6 17 39 12 36 -1 0 -11 -4 -22 -9z"/>
<path d="M3016 2175 c-3 -9 3 -19 17 -25 19 -10 20 -9 6 2 -9 7 -14 19 -12 26
6 17 -4 15 -11 -3z"/>
<path d="M3073 2172 c-8 -14 -8 -19 1 -19 7 0 13 9 13 19 1 10 1 18 0 18 -1 0
-7 -8 -14 -18z"/>
<path d="M18 2138 c4 -16 2 -19 -8 -13 -9 5 -11 4 -6 -4 4 -6 12 -9 17 -6 12
8 12 32 0 39 -5 4 -7 -4 -3 -16z"/>
<path d="M3076 2105 c-3 -8 -1 -15 4 -15 6 0 10 7 10 15 0 8 -2 15 -4 15 -2 0
-6 -7 -10 -15z"/>
<path d="M3 2072 c-1 -22 0 -24 9 -8 6 10 6 22 2 26 -5 5 -10 -3 -11 -18z"/>
<path d="M3072 1943 c-6 -2 -10 -9 -7 -13 7 -11 35 -2 35 11 0 10 -8 10 -28 2z"/>
<path d="M56 1117 c1 -12 3 -24 3 -26 2 -8 31 22 31 32 0 6 -3 7 -7 4 -3 -4
-11 -2 -18 3 -8 7 -11 3 -9 -13z"/>
<path d="M3023 1113 c-7 -3 -13 -9 -13 -14 0 -6 5 -7 10 -4 6 3 10 2 10 -4 0
-10 -19 -26 -32 -26 -18 0 -9 -21 13 -32 21 -11 20 -17 -2 -15 -3 1 -6 -6 -6
-14 0 -7 4 -14 9 -14 4 0 7 -6 6 -12 -2 -7 8 -14 22 -15 21 -2 22 -1 5 5 -11
4 -21 14 -23 23 -2 13 5 16 35 13 20 -1 33 0 28 4 -6 4 -12 16 -13 26 -3 16
-1 18 10 8 11 -9 14 -4 13 31 0 39 -2 42 -30 43 -16 0 -36 -1 -42 -3z m44 -16
c6 -4 13 -1 16 5 2 7 4 -1 3 -19 0 -17 -4 -29 -7 -27 -4 2 -12 -3 -19 -11 -10
-12 -10 -15 1 -15 11 0 11 -2 -1 -10 -8 -5 -19 -10 -25 -10 -5 0 -4 4 3 9 11
6 10 10 -5 16 -10 5 -21 9 -25 9 -3 1 -10 5 -15 9 -4 5 -3 7 2 6 6 -2 20 3 32
11 16 10 19 18 12 26 -11 14 7 14 28 1z"/>
<path d="M3053 1093 c5 -7 -1 -17 -14 -23 -16 -9 -18 -15 -10 -23 8 -8 17 -6
32 9 19 20 19 21 3 35 -10 8 -15 9 -11 2z m7 -28 c-7 -8 -17 -15 -23 -15 -6 0
-2 7 9 15 25 19 30 19 14 0z"/>
<path d="M85 1071 c-3 -5 -2 -12 3 -15 5 -3 9 1 9 9 0 17 -3 19 -12 6z"/>
<path d="M2956 1014 c-4 -10 -12 -14 -22 -10 -14 5 -15 4 -5 -8 6 -7 9 -20 6
-28 -4 -9 1 -23 10 -32 16 -16 16 -17 -7 -20 -7 0 -13 -8 -13 -16 0 -8 -4 -18
-10 -22 -6 -4 -2 -8 8 -8 10 0 16 -4 12 -9 -3 -6 5 -15 17 -21 19 -9 21 -9 8
2 -17 15 -27 53 -11 43 7 -4 8 1 4 12 -3 10 -3 15 2 11 10 -10 37 11 29 23 -3
5 0 18 7 30 8 17 8 20 -1 14 -9 -5 -10 -2 -6 12 8 26 -19 52 -28 27z m19 -53
c0 -22 -4 -43 -8 -46 -4 -3 -5 -2 -2 2 3 3 -3 15 -12 25 -16 18 -16 18 0 12
10 -3 17 -1 17 5 0 6 -4 11 -9 11 -8 0 -8 12 -2 38 1 2 5 1 9 -2 4 -2 8 -23 7
-45z"/>
<path d="M134 993 c2 -10 6 -17 9 -15 4 1 12 2 18 2 8 0 8 5 -1 15 -17 20 -29
19 -26 -2z"/>
<path d="M5 980 c-3 -6 1 -7 9 -4 18 7 21 14 7 14 -6 0 -13 -4 -16 -10z"/>
<path d="M76 975 c-9 -26 -7 -32 5 -12 6 10 9 21 6 23 -2 3 -7 -2 -11 -11z"/>
<path d="M3050 985 c0 -8 29 -12 39 -5 9 5 4 8 -13 8 -14 0 -26 -2 -26 -3z"/>
<path d="M91 944 c0 -11 3 -14 6 -6 3 7 2 16 -1 19 -3 4 -6 -2 -5 -13z"/>
<path d="M3001 944 c0 -11 3 -14 6 -6 3 7 2 16 -1 19 -3 4 -6 -2 -5 -13z"/>
<path d="M55 930 c-3 -6 1 -7 9 -4 18 7 21 14 7 14 -6 0 -13 -4 -16 -10z"/>
<path d="M3075 931 c-3 -5 -2 -12 3 -15 5 -3 9 1 9 9 0 17 -3 19 -12 6z"/>
<path d="M3022 904 c10 -10 20 -16 22 -13 3 3 -5 11 -17 18 -21 13 -21 12 -5
-5z"/>
<path d="M16 902 c-3 -5 1 -9 9 -9 8 0 12 4 9 9 -3 4 -7 8 -9 8 -2 0 -6 -4 -9
-8z"/>
<path d="M76 898 c3 -5 10 -6 15 -3 13 9 11 12 -6 12 -8 0 -12 -4 -9 -9z"/>
<path d="M2965 861 c3 -3 17 -6 31 -7 13 0 22 2 19 5 -3 3 -17 6 -31 7 -13 0
-22 -2 -19 -5z"/>
<path d="M155 800 c-3 -5 -1 -10 4 -10 6 0 11 5 11 10 0 6 -2 10 -4 10 -3 0
-8 -4 -11 -10z"/>
<path d="M2935 799 c-4 -6 -5 -12 -2 -15 2 -3 7 2 10 11 7 17 1 20 -8 4z"/>
<path d="M2915 759 c-3 -4 2 -6 10 -5 21 3 28 13 10 13 -9 0 -18 -4 -20 -8z"/>
<path d="M271 713 c7 -12 15 -20 18 -17 3 2 -3 12 -13 22 -17 16 -18 16 -5 -5z"/>
<path d="M195 700 c-3 -6 1 -7 9 -4 18 7 21 14 7 14 -6 0 -13 -4 -16 -10z"/>
<path d="M2874 678 c-4 -5 -3 -12 0 -15 3 -4 6 -1 6 6 0 7 4 10 9 6 5 -3 12
-2 15 3 3 5 -2 9 -10 9 -8 0 -17 -4 -20 -9z"/>
<path d="M283 673 c4 -6 0 -19 -9 -27 -8 -9 -10 -16 -4 -16 6 0 13 7 16 15 4
8 10 12 16 9 5 -3 4 -12 -4 -22 -10 -12 -10 -14 0 -8 6 4 12 2 12 -3 0 -6 5
-11 11 -11 8 0 8 5 -1 15 -16 20 -1 19 21 -1 10 -9 19 -11 23 -5 4 5 -3 12
-13 16 -11 3 -18 12 -15 20 7 16 -12 29 -21 15 -5 -8 -12 -7 -23 2 -10 8 -13
9 -9 1z"/>
<path d="M256 601 c-3 -4 6 -6 19 -3 14 2 25 6 25 8 0 8 -39 4 -44 -5z"/>
<path d="M2796 593 c-6 -14 -5 -15 5 -6 7 7 10 15 7 18 -3 3 -9 -2 -12 -12z"/>
<path d="M2701 581 c-14 -25 -14 -42 0 -18 6 9 14 15 20 12 5 -4 9 -2 9 4 0
20 -19 21 -29 2z"/>
<path d="M383 513 c-7 -2 -13 -10 -13 -15 0 -6 3 -8 7 -5 3 4 12 2 20 -4 9 -9
13 -8 13 0 0 6 -5 11 -11 11 -5 0 -7 5 -4 10 7 11 6 11 -12 3z"/>
<path d="M2726 511 c-19 -7 -19 -8 0 -13 13 -3 21 0 21 8 0 8 -1 14 -1 13 -1
0 -10 -4 -20 -8z"/>
<path d="M2708 483 c7 -3 16 -2 19 1 4 3 -2 6 -13 5 -11 0 -14 -3 -6 -6z"/>
<path d="M2670 441 c0 -5 8 -15 18 -22 15 -12 16 -12 5 2 -7 9 -10 19 -6 22 3
4 1 7 -5 7 -7 0 -12 -4 -12 -9z"/>
<path d="M433 425 c0 -8 4 -15 9 -15 4 0 8 7 8 15 0 8 -4 15 -8 15 -5 0 -9 -7
-9 -15z"/>
<path d="M453 387 c0 -7 9 -14 19 -14 10 -1 18 3 18 9 0 6 -3 8 -7 5 -3 -4
-11 -2 -18 3 -8 7 -12 6 -12 -3z"/>
<path d="M2588 363 c7 -3 16 -2 19 1 4 3 -2 6 -13 5 -11 0 -14 -3 -6 -6z"/>
<path d="M2476 343 c-7 -7 -30 -14 -58 -16 -13 -1 -14 -5 -6 -14 6 -7 7 -13 2
-13 -4 0 1 -6 11 -14 21 -15 61 -3 50 15 -4 5 -2 9 4 9 5 0 12 -8 14 -17 3
-10 4 -3 3 15 -3 35 -9 46 -20 35z m1 -21 c-10 -10 -15 -21 -12 -24 3 -3 -1
-8 -9 -11 -9 -4 -18 -2 -22 4 -7 12 15 41 26 34 5 -3 11 -1 15 5 3 5 9 10 12
10 3 0 -1 -8 -10 -18z"/>
<path d="M2445 309 c-4 -6 -5 -12 -2 -15 2 -3 7 2 10 11 7 17 1 20 -8 4z"/>
<path d="M2590 340 c0 -5 5 -10 11 -10 5 0 7 5 4 10 -3 6 -8 10 -11 10 -2 0
-4 -4 -4 -10z"/>
<path d="M2555 329 c-4 -6 -5 -12 -2 -15 2 -3 7 2 10 11 7 17 1 20 -8 4z"/>
<path d="M2513 311 c0 -11 5 -18 9 -15 4 3 5 11 1 19 -7 21 -12 19 -10 -4z"/>
<path d="M573 295 c0 -8 4 -12 9 -9 5 3 6 10 3 15 -9 13 -12 11 -12 -6z"/>
<path d="M638 263 c7 -3 16 -2 19 1 4 3 -2 6 -13 5 -11 0 -14 -3 -6 -6z"/>
<path d="M616 242 c-3 -5 1 -9 9 -9 8 0 12 4 9 9 -3 4 -7 8 -9 8 -2 0 -6 -4
-9 -8z"/>
<path d="M730 179 c0 -5 5 -7 10 -4 6 3 10 8 10 11 0 2 -4 4 -10 4 -5 0 -10
-5 -10 -11z"/>
<path d="M2345 179 c-3 -4 2 -6 10 -5 21 3 28 13 10 13 -9 0 -18 -4 -20 -8z"/>
<path d="M2306 164 c-5 -14 -4 -15 9 -4 17 14 19 20 6 20 -5 0 -12 -7 -15 -16z"/>
<path d="M820 150 c6 -11 13 -20 16 -20 2 0 0 9 -6 20 -6 11 -13 20 -16 20 -2
0 0 -9 6 -20z"/>
<path d="M855 140 c-3 -6 1 -7 9 -4 18 7 21 14 7 14 -6 0 -13 -4 -16 -10z"/>
<path d="M2240 120 c-8 -5 -12 -12 -9 -15 4 -3 12 1 19 10 14 17 11 19 -10 5z"/>
<path d="M2190 111 c0 -7 -5 -9 -12 -5 -7 5 -8 3 -3 -5 5 -9 10 -10 18 -2 6 6
8 14 4 18 -4 3 -7 1 -7 -6z"/>
<path d="M866 102 c-2 -4 4 -8 14 -8 10 0 16 4 14 8 -3 4 -9 8 -14 8 -5 0 -11
-4 -14 -8z"/>
<path d="M2172 71 c-7 -4 -14 -14 -15 -22 -2 -8 -7 -21 -12 -29 -8 -13 -7 -13
8 -1 10 8 15 16 12 19 -3 3 2 14 12 24 17 19 16 23 -5 9z"/>
<path d="M921 56 c-9 -11 -9 -16 0 -22 7 -4 9 -3 5 4 -3 6 2 15 11 21 10 6 13
11 7 11 -6 0 -17 -6 -23 -14z"/>
<path d="M895 20 c-3 -5 -1 -10 4 -10 6 0 11 5 11 10 0 6 -2 10 -4 10 -3 0 -8
-4 -11 -10z"/>
</g>
</svg>
